<mxfile host="app.diagrams.net" modified="2024-02-10T00:19:23.115Z" agent="Mozilla/5.0 (Windows NT 10.0; Win64; x64) AppleWebKit/537.36 (KHTML, like Gecko) Chrome/120.0.0.0 Safari/537.36 OPR/106.0.0.0" etag="ZHziRjY6YW4rZWH21aUF" version="23.1.2" type="github">
  <diagram name="Página-1" id="S-2TemtB576XGO0lVmWD">
    <mxGraphModel dx="1009" dy="589" grid="1" gridSize="10" guides="1" tooltips="1" connect="1" arrows="1" fold="1" page="1" pageScale="1" pageWidth="827" pageHeight="1169" math="0" shadow="0">
      <root>
        <mxCell id="0" />
        <mxCell id="1" parent="0" />
        <mxCell id="Fo586u4gh08tBJPbsl_P-27" style="edgeStyle=orthogonalEdgeStyle;rounded=0;orthogonalLoop=1;jettySize=auto;html=1;exitX=0;exitY=1;exitDx=0;exitDy=0;exitPerimeter=0;entryX=0;entryY=0.5;entryDx=0;entryDy=0;" edge="1" parent="1" source="Fo586u4gh08tBJPbsl_P-1" target="Fo586u4gh08tBJPbsl_P-19">
          <mxGeometry relative="1" as="geometry" />
        </mxCell>
        <mxCell id="Fo586u4gh08tBJPbsl_P-28" style="edgeStyle=orthogonalEdgeStyle;rounded=0;orthogonalLoop=1;jettySize=auto;html=1;exitX=1;exitY=1;exitDx=0;exitDy=0;exitPerimeter=0;entryX=0;entryY=0.5;entryDx=0;entryDy=0;" edge="1" parent="1" source="Fo586u4gh08tBJPbsl_P-1" target="Fo586u4gh08tBJPbsl_P-20">
          <mxGeometry relative="1" as="geometry" />
        </mxCell>
        <mxCell id="Fo586u4gh08tBJPbsl_P-31" style="edgeStyle=orthogonalEdgeStyle;rounded=0;orthogonalLoop=1;jettySize=auto;html=1;exitX=0;exitY=0.3333333333333333;exitDx=0;exitDy=0;exitPerimeter=0;entryX=0;entryY=0.5;entryDx=0;entryDy=0;" edge="1" parent="1" source="Fo586u4gh08tBJPbsl_P-1" target="Fo586u4gh08tBJPbsl_P-14">
          <mxGeometry relative="1" as="geometry">
            <Array as="points">
              <mxPoint x="130" y="140" />
              <mxPoint x="130" y="360" />
              <mxPoint x="410" y="360" />
              <mxPoint x="410" y="400" />
            </Array>
          </mxGeometry>
        </mxCell>
        <mxCell id="Fo586u4gh08tBJPbsl_P-33" style="edgeStyle=orthogonalEdgeStyle;rounded=0;orthogonalLoop=1;jettySize=auto;html=1;exitX=1;exitY=0.3333333333333333;exitDx=0;exitDy=0;exitPerimeter=0;entryX=0.5;entryY=0;entryDx=0;entryDy=0;" edge="1" parent="1" source="Fo586u4gh08tBJPbsl_P-1" target="Fo586u4gh08tBJPbsl_P-17">
          <mxGeometry relative="1" as="geometry">
            <Array as="points">
              <mxPoint x="200" y="140" />
              <mxPoint x="200" y="80" />
              <mxPoint x="305" y="80" />
              <mxPoint x="305" y="110" />
              <mxPoint x="480" y="110" />
            </Array>
          </mxGeometry>
        </mxCell>
        <mxCell id="Fo586u4gh08tBJPbsl_P-34" style="edgeStyle=orthogonalEdgeStyle;rounded=0;orthogonalLoop=1;jettySize=auto;html=1;exitX=0.5;exitY=0.5;exitDx=0;exitDy=0;exitPerimeter=0;entryX=0;entryY=0.5;entryDx=0;entryDy=0;" edge="1" parent="1" source="Fo586u4gh08tBJPbsl_P-1" target="Fo586u4gh08tBJPbsl_P-22">
          <mxGeometry relative="1" as="geometry">
            <Array as="points">
              <mxPoint x="200" y="150" />
              <mxPoint x="200" y="200" />
              <mxPoint x="380" y="200" />
              <mxPoint x="380" y="480" />
            </Array>
          </mxGeometry>
        </mxCell>
        <mxCell id="Fo586u4gh08tBJPbsl_P-1" value="Aluno" style="shape=umlActor;verticalLabelPosition=bottom;verticalAlign=top;html=1;" vertex="1" parent="1">
          <mxGeometry x="150" y="120" width="30" height="60" as="geometry" />
        </mxCell>
        <mxCell id="Fo586u4gh08tBJPbsl_P-2" value="Biblioteca" style="shape=umlFrame;whiteSpace=wrap;html=1;pointerEvents=0;" vertex="1" parent="1">
          <mxGeometry x="230" y="100" width="340" height="430" as="geometry" />
        </mxCell>
        <mxCell id="Fo586u4gh08tBJPbsl_P-8" value="Gerar Multa" style="ellipse;whiteSpace=wrap;html=1;" vertex="1" parent="1">
          <mxGeometry x="270" y="450" width="100" height="60" as="geometry" />
        </mxCell>
        <mxCell id="Fo586u4gh08tBJPbsl_P-14" value="Devolver Livro" style="ellipse;whiteSpace=wrap;html=1;" vertex="1" parent="1">
          <mxGeometry x="430" y="370" width="100" height="60" as="geometry" />
        </mxCell>
        <mxCell id="Fo586u4gh08tBJPbsl_P-15" value="Emprestar Livro" style="ellipse;whiteSpace=wrap;html=1;" vertex="1" parent="1">
          <mxGeometry x="430" y="290" width="100" height="60" as="geometry" />
        </mxCell>
        <mxCell id="Fo586u4gh08tBJPbsl_P-16" value="Atualizar Login" style="ellipse;whiteSpace=wrap;html=1;" vertex="1" parent="1">
          <mxGeometry x="430" y="210" width="100" height="60" as="geometry" />
        </mxCell>
        <mxCell id="Fo586u4gh08tBJPbsl_P-17" value="Atualizar Cadastro" style="ellipse;whiteSpace=wrap;html=1;" vertex="1" parent="1">
          <mxGeometry x="430" y="130" width="100" height="60" as="geometry" />
        </mxCell>
        <mxCell id="Fo586u4gh08tBJPbsl_P-18" value="Fazer Cadastro" style="ellipse;whiteSpace=wrap;html=1;" vertex="1" parent="1">
          <mxGeometry x="270" y="130" width="100" height="60" as="geometry" />
        </mxCell>
        <mxCell id="Fo586u4gh08tBJPbsl_P-19" value="Fazer Login" style="ellipse;whiteSpace=wrap;html=1;" vertex="1" parent="1">
          <mxGeometry x="270" y="210" width="100" height="60" as="geometry" />
        </mxCell>
        <mxCell id="Fo586u4gh08tBJPbsl_P-20" value="Recuperar Senha" style="ellipse;whiteSpace=wrap;html=1;" vertex="1" parent="1">
          <mxGeometry x="270" y="290" width="100" height="60" as="geometry" />
        </mxCell>
        <mxCell id="Fo586u4gh08tBJPbsl_P-21" value="Fazer Cadastro&lt;br&gt;de Livro" style="ellipse;whiteSpace=wrap;html=1;" vertex="1" parent="1">
          <mxGeometry x="270" y="370" width="100" height="60" as="geometry" />
        </mxCell>
        <mxCell id="Fo586u4gh08tBJPbsl_P-22" value="Pagar Multa" style="ellipse;whiteSpace=wrap;html=1;" vertex="1" parent="1">
          <mxGeometry x="430" y="450" width="100" height="60" as="geometry" />
        </mxCell>
        <mxCell id="Fo586u4gh08tBJPbsl_P-25" style="edgeStyle=orthogonalEdgeStyle;rounded=0;orthogonalLoop=1;jettySize=auto;html=1;exitX=0.5;exitY=0;exitDx=0;exitDy=0;exitPerimeter=0;entryX=0;entryY=0.5;entryDx=0;entryDy=0;" edge="1" parent="1" source="Fo586u4gh08tBJPbsl_P-23" target="Fo586u4gh08tBJPbsl_P-18">
          <mxGeometry relative="1" as="geometry">
            <Array as="points">
              <mxPoint x="165" y="290" />
              <mxPoint x="250" y="290" />
              <mxPoint x="250" y="160" />
            </Array>
          </mxGeometry>
        </mxCell>
        <mxCell id="Fo586u4gh08tBJPbsl_P-26" style="edgeStyle=orthogonalEdgeStyle;rounded=0;orthogonalLoop=1;jettySize=auto;html=1;exitX=0.75;exitY=0.1;exitDx=0;exitDy=0;exitPerimeter=0;entryX=0;entryY=0.5;entryDx=0;entryDy=0;" edge="1" parent="1" source="Fo586u4gh08tBJPbsl_P-23" target="Fo586u4gh08tBJPbsl_P-21">
          <mxGeometry relative="1" as="geometry">
            <Array as="points">
              <mxPoint x="173" y="400" />
            </Array>
          </mxGeometry>
        </mxCell>
        <mxCell id="Fo586u4gh08tBJPbsl_P-29" style="edgeStyle=orthogonalEdgeStyle;rounded=0;orthogonalLoop=1;jettySize=auto;html=1;exitX=1;exitY=0.3333333333333333;exitDx=0;exitDy=0;exitPerimeter=0;entryX=0;entryY=0.5;entryDx=0;entryDy=0;" edge="1" parent="1" source="Fo586u4gh08tBJPbsl_P-23" target="Fo586u4gh08tBJPbsl_P-15">
          <mxGeometry relative="1" as="geometry">
            <Array as="points">
              <mxPoint x="260" y="460" />
              <mxPoint x="260" y="440" />
              <mxPoint x="390" y="440" />
              <mxPoint x="390" y="320" />
            </Array>
          </mxGeometry>
        </mxCell>
        <mxCell id="Fo586u4gh08tBJPbsl_P-30" style="edgeStyle=orthogonalEdgeStyle;rounded=0;orthogonalLoop=1;jettySize=auto;html=1;exitX=0.5;exitY=0.5;exitDx=0;exitDy=0;exitPerimeter=0;entryX=0;entryY=0.5;entryDx=0;entryDy=0;" edge="1" parent="1" source="Fo586u4gh08tBJPbsl_P-23" target="Fo586u4gh08tBJPbsl_P-8">
          <mxGeometry relative="1" as="geometry">
            <Array as="points">
              <mxPoint x="240" y="470" />
              <mxPoint x="240" y="480" />
            </Array>
          </mxGeometry>
        </mxCell>
        <mxCell id="Fo586u4gh08tBJPbsl_P-32" style="edgeStyle=orthogonalEdgeStyle;rounded=0;orthogonalLoop=1;jettySize=auto;html=1;exitX=1;exitY=1;exitDx=0;exitDy=0;exitPerimeter=0;entryX=0;entryY=0.5;entryDx=0;entryDy=0;" edge="1" parent="1" source="Fo586u4gh08tBJPbsl_P-23" target="Fo586u4gh08tBJPbsl_P-16">
          <mxGeometry relative="1" as="geometry">
            <Array as="points">
              <mxPoint x="180" y="520" />
              <mxPoint x="400" y="520" />
              <mxPoint x="400" y="240" />
            </Array>
          </mxGeometry>
        </mxCell>
        <mxCell id="Fo586u4gh08tBJPbsl_P-23" value="Funcionário" style="shape=umlActor;verticalLabelPosition=bottom;verticalAlign=top;html=1;" vertex="1" parent="1">
          <mxGeometry x="150" y="440" width="30" height="60" as="geometry" />
        </mxCell>
      </root>
    </mxGraphModel>
  </diagram>
</mxfile>
